<svg width="64" height="64" viewBox="0 0 64 64" fill="none" xmlns="http://www.w3.org/2000/svg">
<path d="M2 3.79104C2 2.80188 2.80188 2 3.79104 2H19.0149C20.0041 2 20.806 2.80188 20.806 3.79104V19.0149C20.806 20.0041 20.0041 20.806 19.0149 20.806H3.79104C2.80188 20.806 2 20.0041 2 19.0149V3.79104Z" fill="#5F77F4"/>
<path fill-rule="evenodd" clip-rule="evenodd" d="M5.78581 5.78581C6.0481 5.52351 6.47336 5.52351 6.73565 5.78581L11.403 10.4531L16.0703 5.78581C16.3326 5.52351 16.7579 5.52351 17.0202 5.78581C17.2825 6.0481 17.2825 6.47336 17.0202 6.73565L12.3528 11.403L17.0202 16.0703C17.2825 16.3326 17.2825 16.7579 17.0202 17.0202C16.7579 17.2825 16.3326 17.2825 16.0703 17.0202L11.403 12.3528L6.73565 17.0202C6.47336 17.2825 6.0481 17.2825 5.78581 17.0202C5.52351 16.7579 5.52351 16.3326 5.78581 16.0703L10.4531 11.403L5.78581 6.73565C5.52351 6.47336 5.52351 6.0481 5.78581 5.78581Z" fill="#F9F9FC"/>
<path d="M22.597 3.79104C22.597 2.80188 23.3989 2 24.3881 2H39.6119C40.6011 2 41.403 2.80188 41.403 3.79104V19.0149C41.403 20.0041 40.6011 20.806 39.6119 20.806H24.3881C23.3989 20.806 22.597 20.0041 22.597 19.0149V3.79104Z" fill="#F4C16B"/>
<path fill-rule="evenodd" clip-rule="evenodd" d="M32 15.9366C34.5038 15.9366 36.5336 13.9068 36.5336 11.403C36.5336 8.89916 34.5038 6.8694 32 6.8694C29.4962 6.8694 27.4664 8.89916 27.4664 11.403C27.4664 13.9068 29.4962 15.9366 32 15.9366ZM32 17.2799C35.2457 17.2799 37.8769 14.6487 37.8769 11.403C37.8769 8.15728 35.2457 5.52612 32 5.52612C28.7543 5.52612 26.1231 8.15728 26.1231 11.403C26.1231 14.6487 28.7543 17.2799 32 17.2799Z" fill="#F9F9FC"/>
<path d="M43.194 3.79104C43.194 2.80188 43.9959 2 44.9851 2H60.209C61.1981 2 62 2.80188 62 3.79104V19.0149C62 20.0041 61.1981 20.806 60.209 20.806H44.9851C43.9959 20.806 43.194 20.0041 43.194 19.0149V3.79104Z" fill="#5F77F4"/>
<path fill-rule="evenodd" clip-rule="evenodd" d="M46.9798 5.78581C47.2421 5.52351 47.6674 5.52351 47.9297 5.78581L52.597 10.4531L57.2644 5.78581C57.5266 5.52351 57.9519 5.52351 58.2142 5.78581C58.4765 6.0481 58.4765 6.47336 58.2142 6.73565L53.5469 11.403L58.2142 16.0703C58.4765 16.3326 58.4765 16.7579 58.2142 17.0202C57.9519 17.2825 57.5266 17.2825 57.2644 17.0202L52.597 12.3528L47.9297 17.0202C47.6674 17.2825 47.2421 17.2825 46.9798 17.0202C46.7175 16.7579 46.7175 16.3326 46.9798 16.0703L51.6472 11.403L46.9798 6.73565C46.7175 6.47336 46.7175 6.0481 46.9798 5.78581Z" fill="#F9F9FC"/>
<path d="M22.597 24.3881C22.597 23.3989 23.3989 22.597 24.3881 22.597H39.6119C40.6011 22.597 41.403 23.3989 41.403 24.3881V39.6119C41.403 40.6011 40.6011 41.403 39.6119 41.403H24.3881C23.3989 41.403 22.597 40.6011 22.597 39.6119V24.3881Z" fill="#5F77F4"/>
<path fill-rule="evenodd" clip-rule="evenodd" d="M26.3828 26.3828C26.6451 26.1205 27.0704 26.1205 27.3327 26.3828L32 31.0502L36.6673 26.3828C36.9296 26.1205 37.3549 26.1205 37.6172 26.3828C37.8795 26.6451 37.8795 27.0704 37.6172 27.3327L32.9498 32L37.6172 36.6673C37.8795 36.9296 37.8795 37.3549 37.6172 37.6172C37.3549 37.8795 36.9296 37.8795 36.6673 37.6172L32 32.9498L27.3327 37.6172C27.0704 37.8795 26.6451 37.8795 26.3828 37.6172C26.1205 37.3549 26.1205 36.9296 26.3828 36.6673L31.0502 32L26.3828 27.3327C26.1205 27.0704 26.1205 26.6451 26.3828 26.3828Z" fill="#F9F9FC"/>
<path d="M2 24.3881C2 23.3989 2.80188 22.597 3.79104 22.597H19.0149C20.0041 22.597 20.806 23.3989 20.806 24.3881V39.6119C20.806 40.6011 20.0041 41.403 19.0149 41.403H3.79104C2.80188 41.403 2 40.6011 2 39.6119V24.3881Z" fill="#F4C16B"/>
<path fill-rule="evenodd" clip-rule="evenodd" d="M11.403 36.5336C13.9068 36.5336 15.9366 34.5038 15.9366 32C15.9366 29.4962 13.9068 27.4664 11.403 27.4664C8.89916 27.4664 6.8694 29.4962 6.8694 32C6.8694 34.5038 8.89916 36.5336 11.403 36.5336ZM11.403 37.8769C14.6487 37.8769 17.2799 35.2457 17.2799 32C17.2799 28.7543 14.6487 26.1231 11.403 26.1231C8.15728 26.1231 5.52612 28.7543 5.52612 32C5.52612 35.2457 8.15728 37.8769 11.403 37.8769Z" fill="#F9F9FC"/>
<path d="M43.194 24.3881C43.194 23.3989 43.9959 22.597 44.9851 22.597H60.209C61.1981 22.597 62 23.3989 62 24.3881V39.6119C62 40.6011 61.1981 41.403 60.209 41.403H44.9851C43.9959 41.403 43.194 40.6011 43.194 39.6119V24.3881Z" fill="#F4C16B"/>
<path fill-rule="evenodd" clip-rule="evenodd" d="M52.597 36.5336C55.1008 36.5336 57.1306 34.5038 57.1306 32C57.1306 29.4962 55.1008 27.4664 52.597 27.4664C50.0932 27.4664 48.0634 29.4962 48.0634 32C48.0634 34.5038 50.0932 36.5336 52.597 36.5336ZM52.597 37.8769C55.8427 37.8769 58.4739 35.2457 58.4739 32C58.4739 28.7543 55.8427 26.1231 52.597 26.1231C49.3513 26.1231 46.7201 28.7543 46.7201 32C46.7201 35.2457 49.3513 37.8769 52.597 37.8769Z" fill="#F9F9FC"/>
<path d="M43.194 44.9851C43.194 43.9959 43.9959 43.194 44.9851 43.194H60.209C61.1981 43.194 62 43.9959 62 44.9851V60.209C62 61.1981 61.1981 62 60.209 62H44.9851C43.9959 62 43.194 61.1981 43.194 60.209V44.9851Z" fill="#5F77F4"/>
<path fill-rule="evenodd" clip-rule="evenodd" d="M46.9798 46.9798C47.2421 46.7175 47.6674 46.7175 47.9297 46.9798L52.597 51.6472L57.2644 46.9798C57.5266 46.7175 57.9519 46.7175 58.2142 46.9798C58.4765 47.2421 58.4765 47.6674 58.2142 47.9297L53.5469 52.597L58.2142 57.2644C58.4765 57.5266 58.4765 57.9519 58.2142 58.2142C57.9519 58.4765 57.5266 58.4765 57.2644 58.2142L52.597 53.5469L47.9297 58.2142C47.6674 58.4765 47.2421 58.4765 46.9798 58.2142C46.7175 57.9519 46.7175 57.5266 46.9798 57.2644L51.6472 52.597L46.9798 47.9297C46.7175 47.6674 46.7175 47.2421 46.9798 46.9798Z" fill="#F9F9FC"/>
<path d="M22.597 44.9851C22.597 43.9959 23.3989 43.194 24.3881 43.194H39.6119C40.6011 43.194 41.403 43.9959 41.403 44.9851V60.209C41.403 61.1981 40.6011 62 39.6119 62H24.3881C23.3989 62 22.597 61.1981 22.597 60.209V44.9851Z" fill="#F4C16B"/>
<path fill-rule="evenodd" clip-rule="evenodd" d="M32 57.1306C34.5038 57.1306 36.5336 55.1008 36.5336 52.597C36.5336 50.0932 34.5038 48.0634 32 48.0634C29.4962 48.0634 27.4664 50.0932 27.4664 52.597C27.4664 55.1008 29.4962 57.1306 32 57.1306ZM32 58.4739C35.2457 58.4739 37.8769 55.8427 37.8769 52.597C37.8769 49.3513 35.2457 46.7201 32 46.7201C28.7543 46.7201 26.1231 49.3513 26.1231 52.597C26.1231 55.8427 28.7543 58.4739 32 58.4739Z" fill="#F9F9FC"/>
<path d="M2 44.9851C2 43.9959 2.80188 43.194 3.79104 43.194H19.0149C20.0041 43.194 20.806 43.9959 20.806 44.9851V60.209C20.806 61.1981 20.0041 62 19.0149 62H3.79104C2.80188 62 2 61.1981 2 60.209V44.9851Z" fill="#5F77F4"/>
<path fill-rule="evenodd" clip-rule="evenodd" d="M5.78581 46.9798C6.0481 46.7175 6.47336 46.7175 6.73565 46.9798L11.403 51.6472L16.0703 46.9798C16.3326 46.7175 16.7579 46.7175 17.0202 46.9798C17.2825 47.2421 17.2825 47.6674 17.0202 47.9297L12.3528 52.597L17.0202 57.2644C17.2825 57.5266 17.2825 57.9519 17.0202 58.2142C16.7579 58.4765 16.3326 58.4765 16.0703 58.2142L11.403 53.5469L6.73565 58.2142C6.47336 58.4765 6.0481 58.4765 5.78581 58.2142C5.52351 57.9519 5.52351 57.5266 5.78581 57.2644L10.4531 52.597L5.78581 47.9297C5.52351 47.6674 5.52351 47.2421 5.78581 46.9798Z" fill="#F9F9FC"/>
</svg>
